<?xml version="1.0" standalone="no"?> <!DOCTYPE svg PUBLIC "-//W3C//DTD SVG 1.0//EN" "http://www.w3.org/TR/2001/REC-SVG-20010904/DTD/svg10.dtd" > <svg xmlns="http://www.w3.org/2000/svg" width="100%" height="100%">
<defs >
<font horiz-adv-x="1177" ><font-face
    font-family="TYPO COMICS Bold DEMO"
    units-per-em="2048"
    panose-1="2 0 5 0 0 0 0 0 0 0"
    ascent="2072"
    descent="-598"
    alphabetic="0" />
<missing-glyph horiz-adv-x="1436" d="M55 -25V2176H1341V-25H55ZM180 100H1216V2051H180V100Z" />
<glyph unicode=" " glyph-name="space" horiz-adv-x="579" />
<glyph unicode="!" glyph-name="exclam" horiz-adv-x="674" d="M267 1405Q286 1510 431 1510H436Q497 1509 536 1484Q579 1457 579 1412Q579 1405 578 1397Q480 841 431 563Q412 458 265 458H260Q201 458 161 483Q118 512 118 557Q118 565 121 573Q169 849 267
1405ZM321 227T357 196Q390 167 390 132Q390 115 382 96L360 54Q323 -25 224 -25Q199 -25 173 -20Q125 -11 89 20Q55 51 55 86Q55 104 65 123Q69 129 74 142Q81 154 84 162Q124 240 220 240Q244 240 272 235Q321 227 357 196Z" />
<glyph unicode="&quot;" glyph-name="quotedbl" horiz-adv-x="910" d="M504 1427Q509 1533 655 1533H664Q723 1533 765 1509Q808 1484 814 1442Q815 1434 815 1425Q809 1337 799 1213Q789 1079 784 992Q776 886 632 886H623Q563 886 521 911Q479 937 472 980Q472
990 473 997Q478 1083 488 1217Q498 1341 504 1427ZM93 1458Q97 1512 152 1533Q184 1547 222 1547Q239 1547 258 1544Q316 1537 357 1506Q394 1475 399 1433Q401 1423 401 1410L364 969Q360 918 304 894Q272 880 235 880Q218 880 200 883Q140 892 101 923Q63 951
56 995V1003Q56 1011 57 1019Q62 1099 74 1218Q87 1379 93 1458Z" />
<glyph unicode="#" glyph-name="numbersign" horiz-adv-x="1498" d="M646 652Q691 654 804 655Q812 781 821 885Q783 883 681 881Q668 778 646 652ZM1287 681Q1300 682 1313 682Q1413 682 1461 597Q1473 576 1473 554Q1473 532 1459 513Q1432 474 1360 467Q1237
457 1097 449Q1080 239 1060 81Q1052 28 998 -2Q956 -25 900 -25H893Q833 -25 793 0Q748 28 748 74Q748 80 749 88Q769 243 786 436Q671 434 601 432Q543 146 500 53Q464 -21 361 -21Q338 -21 309 -17Q251 -8 218 23Q192 49 192 80Q192 101 203 121Q235 190 286
422L167 421H158Q102 421 65 448Q25 479 25 525Q25 572 64 604Q105 639 168 640Q181 642 313 642L329 643L366 863Q322 862 259 862H200Q134 862 94 895Q55 927 55 974V977Q55 1023 94 1051Q135 1081 200 1081Q230 1080 265 1080Q331 1080 392 1083Q396 1143 396
1211Q396 1244 394 1274V1278Q394 1331 444 1361Q486 1386 545 1386Q605 1386 647 1362Q704 1331 705 1276Q707 1245 707 1208Q707 1147 704 1102Q812 1105 837 1106Q847 1228 851 1280Q855 1334 911 1365Q953 1389 1014 1389Q1075 1389 1115 1362Q1162 1333 1162
1284V1277Q1159 1242 1149 1117Q1181 1117 1222 1116Q1288 1114 1327 1080Q1366 1046 1366 1002Q1366 956 1326 924Q1289 896 1233 896H1220Q1171 898 1132 898Q1122 756 1115 669Q1209 675 1287 681Z" />
<glyph unicode="$" glyph-name="dollar" horiz-adv-x="1650" d="M796 955T823 1114Q847 1261 854 1299Q731 1254 686 1203Q626 1136 626 1082Q626 983 790 917Q796 955 823 1114ZM1115 546T1046 584Q1022 434 979 184Q983 185 997 191Q1090 233 1142 303Q1177
352 1177 398Q1177 429 1161 461Q1115 546 1046 584ZM1214 1579Q1556 1562 1556 1340Q1556 1313 1549 1284Q1528 1180 1382 1180H1378Q1318 1181 1278 1206Q1237 1234 1237 1277Q1237 1287 1240 1296Q1242 1305 1242 1314Q1242 1367 1178 1369L1085 817Q1485 677
1485 422Q1485 409 1484 396Q1450 -25 938 -55Q895 -296 752 -296H743Q684 -296 645 -271Q600 -243 600 -197Q600 -191 601 -182Q621 -89 629 -44Q352 -13 129 91Q63 123 55 174V183Q55 220 90 253Q146 301 208 301Q244 301 283 284Q510 176 662 157Q724 523 753
696Q585 744 505 790Q365 870 316 1015Q301 1057 301 1098Q301 1245 479 1378Q651 1510 851 1554Q876 1561 899 1564Q914 1647 929 1730Q946 1836 1093 1836H1098Q1157 1835 1196 1810Q1241 1782 1241 1736Q1241 1730 1240 1722Q1228 1656 1214 1579Z" />
<glyph unicode="%" glyph-name="percent" horiz-adv-x="1554" d="M1150 221T1185 254Q1209 277 1209 300Q1209 317 1198 336Q1177 375 1162 384Q1158 386 1154 386Q1143 386 1133 367Q1103 307 1098 272Q1095 253 1095 237Q1095 211 1094 211Q1150 221 1185 254ZM996
595Q1064 624 1133 624Q1203 624 1276 596Q1423 541 1488 416Q1520 356 1520 300Q1520 215 1450 141Q1359 46 1199 3Q1133 -14 1073 -14Q1002 -14 937 10Q790 67 784 221V233Q784 329 828 424Q864 490 907 530T996 595ZM341 1003Q346 995 355 995Q375 995 416 1032Q438
1054 438 1079Q438 1095 428 1116Q408 1151 384 1151Q374 1151 364 1145Q333 1087 329 1052V1044Q329 1025 341 1003ZM430 782Q366 764 306 764Q233 764 166 790Q18 846 15 999V1011Q15 1107 59 1202Q111 1311 186 1352L227 1373Q293 1402 363 1402Q431 1402 505
1375Q652 1319 718 1196Q749 1136 749 1079Q749 994 679 919Q590 824 430 782ZM1141 1089T896 629Q704 269 570 43Q529 -25 431 -25Q405 -25 375 -20Q314 -12 284 21Q262 43 262 71Q262 93 275 114Q424 365 600 698Q839 1148 852 1230Q860 1282 914 1312Q961 1335
1019 1335Q1081 1335 1119 1308Q1164 1282 1164 1236Q1164 1230 1163 1222Q1141 1089 896 629Z" />
<glyph unicode="&amp;" glyph-name="ampersand" horiz-adv-x="1500" d="M564 180T589 180Q723 180 792 259Q656 391 530 622Q399 528 372 370Q368 348 368 329Q368 206 536 185Q564 180 589 180ZM612 1327T612 1211Q612 1201 614 1190Q623 1076 687 944Q793 998
793 1163V1188Q784 1332 722 1332H720Q612 1327 612 1211ZM1295 239Q1365 228 1393 189Q1406 168 1406 146Q1406 124 1394 103Q1351 22 1256 22Q1238 22 1218 25Q1100 44 1003 100Q882 -1 689 -27Q634 -35 578 -35Q444 -35 317 14Q186 65 112 186Q55 276 55 370Q55
409 65 448Q133 727 406 842Q301 1017 301 1174Q301 1290 368 1382Q439 1481 565 1527Q640 1554 712 1554Q761 1554 809 1541Q952 1503 1032 1404Q1104 1312 1104 1189Q1104 1168 1103 1148Q1071 827 802 732Q843 643 855 610T871 548Q882 619 910 649T997 687Q1016
690 1033 690Q1069 690 1102 676Q1159 656 1171 605Q1187 536 1187 472Q1187 365 1153 293Q1214 251 1295 239Z" />
<glyph unicode="&apos;" glyph-name="quotesingle" horiz-adv-x="563" d="M98 1455Q98 1510 154 1532Q186 1546 224 1546Q241 1546 260 1543Q317 1535 360 1505Q398 1475 406 1433Q409 1422 409 1410Q406 1247 406 1130Q406 1065 412 1035Q413 1025 413 1016Q413
973 374 945Q333 920 274 920Q214 920 168 944Q112 973 101 1026Q95 1062 95 1141Q95 1270 98 1455Z" />
<glyph unicode="(" glyph-name="parenleft" horiz-adv-x="779" d="M445 1502Q487 1546 559 1546Q595 1546 640 1535Q700 1520 720 1489Q733 1473 733 1452Q733 1423 706 1395Q396 1064 331 590Q319 501 319 422Q319 19 615 -194Q661 -227 661 -266Q661 -276 658
-284Q648 -321 595 -344Q540 -368 495 -368Q442 -368 400 -337Q15 -60 15 440Q15 506 21 573Q73 1108 445 1502Z" />
<glyph unicode=")" glyph-name="parenright" horiz-adv-x="779" d="M283 -324Q241 -368 169 -368Q133 -368 88 -357Q28 -342 8 -311Q-5 -295 -5 -274Q-5 -245 22 -217Q332 114 397 588Q409 677 409 756Q409 1159 113 1372Q67 1405 67 1444Q67 1454 70 1462Q80
1499 133 1522Q188 1546 233 1546Q286 1546 328 1515Q713 1238 713 738Q713 672 707 605Q655 70 283 -324Z" />
<glyph unicode="*" glyph-name="asterisk" horiz-adv-x="1210" d="M560 625Q508 629 474 652Q433 677 433 721Q433 732 436 740Q447 805 478 934Q321 782 311 774Q257 742 204 742Q150 742 99 774Q51 804 50 855Q50 907 99 936Q185 989 373 1075Q227 1135 131
1179Q63 1211 58 1257Q55 1262 55 1273Q55 1312 93 1343Q145 1391 208 1391Q245 1391 283 1371Q375 1327 509 1230Q499 1290 499 1340Q499 1416 522 1469Q554 1546 656 1546H659Q767 1546 783 1461Q785 1434 785 1406Q785 1322 765 1235Q897 1327 999 1372Q1041
1391 1077 1391Q1141 1391 1184 1341Q1210 1315 1210 1285Q1210 1277 1208 1268Q1206 1258 1202 1252Q1188 1209 1116 1179Q1010 1134 814 1077Q912 1056 1112 926Q1148 901 1148 861Q1148 850 1146 839Q1135 792 1084 763Q1026 732 973 732Q919 732 871 765Q863
773 701 937Q710 829 710 765Q710 747 709 733Q709 726 708 716Q698 674 654 651Q617 628 565 625H560Z" />
<glyph unicode="+" glyph-name="plus" horiz-adv-x="1451" d="M1211 697Q1276 697 1316 667Q1356 635 1356 588Q1356 542 1317 511Q1277 478 1211 478Q1045 478 914 479Q921 390 921 294Q921 171 906 80Q887 -25 740 -25H736Q675 -23 636 2Q594 31 594 74Q594
80 595 88Q610 173 610 290Q610 388 602 486Q381 493 198 508Q135 513 95 548Q58 582 55 628Q55 676 95 704Q129 729 178 729Q190 729 203 727Q375 712 584 706Q574 815 574 917Q574 969 577 1012Q584 1066 637 1096Q679 1120 740 1120Q800 1120 841 1094Q888 1064
888 1016V1009Q885 967 885 917Q885 816 895 700Q1042 697 1211 697Z" />
<glyph unicode="," glyph-name="comma" horiz-adv-x="516" d="M112 175T112 185Q112 229 153 257Q191 282 249 283H254Q396 283 414 177Q421 128 421 83Q421 -74 349 -193Q252 -346 173 -371Q149 -373 131 -373Q22 -373 -8 -297Q-15 -281 -15 -264Q-15 -227 16
-198Q43 -171 80 -117T120 87Q120 126 115 167Q112 175 112 185Z" />
<glyph unicode="-" glyph-name="hyphen" horiz-adv-x="917" d="M667 805Q734 801 774 761Q811 722 811 671Q811 617 773 579Q734 542 672 542H666L199 547Q132 551 92 593Q55 630 55 684V687Q55 740 92 774Q132 810 194 810H200L667 805Z" />
<glyph unicode="." glyph-name="period" horiz-adv-x="1547" d="M100 -282V1428H1435V-282H100ZM135 -242H1399V1398H135V-242ZM725 471H728L739 470V452Q741 382 741 326L734 324H728Q725 395 725 462V465V471ZM1224 471H1225L1239 470Q1238 461 1238 457Q1238
402 1241 326L1230 324H1226Q1224 382 1223 453Q1224 465 1224 471ZM790 466H794Q794 464 801 454Q797 436 797 424V406Q797 362 812 348H813Q834 348 848 465H850Q862 461 863 461Q857 403 857 375Q857 344 869 344Q871 328 871 324H863Q850 324 843 356H842Q831
328 815 328H810Q790 328 783 389Q782 393 782 411V422Q782 447 790 466ZM1094 466H1100Q1112 466 1128 438Q1140 416 1140 394V385Q1140 348 1100 327Q1093 324 1086 324H1079Q1049 324 1044 367V376Q1044 426 1084 464Q1092 466 1094 466ZM249 462H258Q286 457
286 422Q286 388 253 373Q241 368 226 366V329H225Q220 329 211 332V366H206L201 367Q201 378 206 386H211V386Q211 427 205 427Q199 434 199 438Q217 462 249 462ZM1059 376V368Q1059 347 1084 344Q1106 344 1121 371Q1126 379 1126 389V392Q1126 419 1100 445Q1097
445 1097 447Q1080 447 1062 397Q1059 386 1059 376ZM224 435Q225 400 225 388Q226 388 226 386Q255 392 263 403Q271 413 271 421Q271 439 256 442H250Q224 439 224 435ZM404 438Q423 438 432 389Q431 389 417 385Q411 418 404 418Q387 409 384 343Q385 329 385
328Q375 326 370 326Q357 395 357 413Q369 415 372 415V414Q372 410 375 395H376Q386 438 404 438ZM537 432Q557 432 570 400Q572 391 572 383V380Q572 344 537 327Q532 326 528 326Q501 330 501 364Q501 414 526 429Q528 430 537 432ZM614 432Q633 432 650 343Q651
343 651 336Q643 329 639 329Q624 391 616 409Q607 396 598 339Q597 339 593 329H586Q579 329 577 386Q575 400 575 409Q582 411 589 411Q592 394 592 391H593Q600 432 614 432ZM1185 432Q1201 432 1220 336Q1211 329 1207 329Q1192 395 1183 409Q1177 397 1164
335Q1161 329 1160 329H1154Q1147 329 1144 409Q1150 411 1159 411Q1160 392 1160 389H1161Q1168 432 1185 432ZM472 430Q490 425 490 413V412Q490 410 480 404H479Q475 411 466 411Q453 411 450 400Q450 395 479 394Q499 383 499 360Q499 335 479 326L471 324H466Q442
324 432 347V348Q433 351 441 359H442Q454 344 470 344Q484 348 484 360Q480 375 463 375Q435 375 435 397V400Q435 430 472 430ZM912 430Q925 430 932 412V411Q921 404 918 404Q918 410 907 411Q895 411 890 401V400Q890 395 919 394Q938 385 938 358Q938 332
914 324H906Q883 324 871 347V348Q879 359 881 359H882Q894 344 909 344Q923 348 923 360Q923 372 907 375Q882 375 877 386Q875 397 875 400Q875 430 912 430ZM1249 429V429Q1262 427 1263 427Q1262 409 1262 401V392Q1264 357 1275 357H1276Q1294 370 1294 424V424H1309V421Q1316
343 1316 333Q1316 287 1286 277Q1284 277 1281 277H1276Q1258 277 1253 296Q1252 301 1252 306V306Q1252 321 1255 321H1256Q1265 315 1268 315L1267 306Q1267 298 1276 297H1278Q1301 297 1301 339Q1301 344 1300 360H1299Q1291 336 1273 336H1272Q1253 336 1247
383V400Q1247 410 1249 429ZM331 428Q354 424 354 406V400Q354 380 315 364H305Q305 353 322 348Q333 348 343 366H347Q355 354 355 351Q338 329 325 329H318Q292 329 288 374Q288 414 320 427L331 428ZM681 428H692Q719 419 719 383Q718 362 718 348Q718 348 720
332Q711 324 707 324H706L704 335Q692 327 681 327H674Q652 330 652 348V356Q652 386 684 391Q695 390 704 385V386Q700 411 687 411Q678 411 669 401H666Q664 402 658 412V414Q670 428 681 428ZM983 428Q1007 424 1007 405Q1007 376 965 364H958V362Q965 348 974
348Q984 348 997 366H998Q999 366 1007 354Q1007 345 986 332Q982 329 977 329H970Q946 329 941 373Q941 413 971 427L983 428ZM516 365Q518 347 528 347H531Q555 354 557 382V385Q551 411 537 411H535Q522 411 517 379Q516 372 516 365ZM305 385Q324 385 338 403V405Q331
407 329 407Q313 407 305 388V385ZM958 385H961Q978 385 992 404Q986 407 983 407H980Q964 407 958 386V385ZM667 354V351Q667 348 677 345Q694 345 702 362Q694 369 683 369Q667 366 667 354ZM618 254Q631 254 633 220V217L627 216H625Q622 237 617 237Q611 237
609 218Q610 216 610 214Q610 204 612 175Q617 178 621 178H624V163L613 160Q618 103 618 91H607Q603 145 603 156H602Q597 154 592 154V171Q598 171 602 173Q599 194 599 225Q602 254 616 254H618ZM816 254Q828 254 832 217L824 216H822V217Q822 232 815 237Q807
232 807 222Q807 214 810 176Q810 176 810 175Q815 178 820 178H821L822 170V163Q821 163 810 160L812 157Q812 145 816 91H805Q805 97 801 156Q792 154 789 154V171L800 172Q797 218 797 224Q797 254 816 254ZM709 237H713H719V228Q719 167 722 96H711Q709 161
709 198V237ZM735 237H736H744V207Q744 175 747 96H736Q733 162 733 232V235Q733 237 735 237ZM529 234Q537 232 539 232Q537 203 537 190H539L551 192V175Q550 175 537 173L541 99L539 97H531Q528 126 526 172H513V188L524 189H526V207Q526 234 529 234ZM994 234Q997
234 1006 232Q1003 219 1003 203V190H1006L1018 192V175H1015L1003 173L1008 99L1003 97H997Q994 159 994 172H979L980 180V188L991 189H992V190Q992 211 994 234ZM1140 234Q1143 234 1152 232Q1150 214 1150 198V190H1152L1164 192V184V175Q1163 175 1150 173V167Q1150
152 1154 99L1152 97H1143L1139 172H1126V188L1137 189H1138L1140 234ZM404 231H414Q428 231 437 208Q431 202 431 199H428Q419 214 407 214Q390 214 372 188Q363 169 363 154V149Q363 120 387 114Q389 113 395 113Q426 116 426 133V143Q422 146 414 146H404V163Q432
163 437 154Q439 147 439 145Q437 120 437 116Q437 105 441 90Q440 90 433 85H432Q428 85 426 107Q420 99 397 95H395Q357 95 352 146V150Q352 208 397 229L404 231ZM866 199Q889 199 900 161V147Q900 113 866 97L859 96Q843 96 835 116Q833 127 833 133V137Q833
178 852 194Q860 199 866 199ZM943 199Q958 199 977 105H976Q971 101 967 101Q952 168 943 180Q936 173 920 101L918 100H914Q908 100 905 176L913 178H915Q918 162 918 145H919Q928 199 943 199ZM487 195Q507 191 507 175Q508 175 508 173Q508 150 473 137Q468
134 458 134V133Q458 122 475 116H476Q486 116 499 132H502Q502 130 508 123V122Q494 100 479 100H473Q454 100 446 132V147Q446 180 472 193Q477 195 487 195ZM1083 195H1094Q1110 195 1118 167Q1120 151 1121 149Q1120 143 1118 123Q1120 119 1120 100L1114 96H1111L1108
108Q1098 97 1083 97H1079Q1058 100 1058 117V125Q1061 157 1088 157Q1100 157 1109 149V152Q1109 177 1091 181H1088Q1082 181 1071 173H1070Q1069 173 1064 180V182Q1074 195 1083 195ZM634 193Q636 193 645 190Q645 116 659 116Q678 128 687 182Q688 187 688
193H689Q692 193 699 190Q696 166 696 145V133Q696 124 701 114Q696 107 696 103H694Q687 107 686 129H684Q680 114 665 100H656Q636 100 636 175V185L634 193ZM843 137Q845 114 858 114H859Q875 114 886 139Q889 147 889 150Q883 181 867 181H863Q848 181 843
137ZM457 150Q480 150 496 172Q494 178 485 178H482Q463 178 457 150ZM1068 122Q1071 114 1079 114H1085Q1099 114 1107 132Q1098 140 1090 140H1088Q1068 137 1068 122ZM507 45Q508 45 524 41Q520 3 519 -51Q519 -85 529 -120Q518 -130 517 -130H516Q513 -130
510 -117H508Q508 -125 487 -133Q454 -133 440 -91Q437 -79 437 -63Q437 -15 471 -5H475Q489 -5 504 -21V-20Q504 -12 507 45ZM316 39L331 34Q329 11 329 -2V-16Q342 -13 344 -13Q346 -33 346 -37H344Q335 -38 329 -38Q332 -101 334 -129Q322 -131 317 -131V-130Q312
-69 312 -42L310 -40H296V-16H311V-7Q311 39 316 39ZM674 39H675L690 34Q688 6 688 -11V-16Q702 -13 704 -13L705 -27V-37Q689 -38 689 -39Q689 -62 694 -129Q681 -131 677 -131V-130Q672 -55 672 -40H654V-16H671Q671 18 674 39ZM546 36Q555 36 557 22V21Q557
10 549 5H542Q534 10 534 22Q536 36 546 36ZM607 -5Q632 -5 648 -43Q650 -54 650 -60V-69Q650 -109 611 -129Q607 -131 598 -131Q571 -131 566 -90V-76Q566 -25 596 -7Q606 -5 607 -5ZM800 -5H805Q816 -5 816 -8V-10Q825 -5 835 -5Q860 -5 868 -49Q868 -60 869
-63Q866 -115 838 -127L830 -128H820L821 -136Q821 -142 822 -176H805Q800 -44 800 -5ZM915 -5Q938 -5 954 -40Q958 -53 958 -64Q958 -107 920 -129Q912 -131 906 -131Q884 -131 875 -104Q873 -92 873 -81Q873 -27 903 -7Q914 -5 915 -5ZM1117 -5Q1141 -5 1156
-40Q1160 -48 1160 -59V-67Q1160 -110 1121 -129Q1117 -131 1108 -131Q1080 -131 1076 -90V-76Q1076 -25 1106 -7Q1116 -5 1117 -5ZM1211 -5Q1228 -5 1238 -63H1239Q1247 -5 1266 -5H1267Q1291 -5 1307 -123H1305Q1294 -128 1292 -128H1291Q1272 -30 1266 -30Q1256
-52 1249 -112Q1246 -122 1239 -122Q1231 -122 1228 -107Q1215 -31 1209 -31Q1193 -89 1193 -124Q1183 -128 1176 -128V-127L1164 -23Q1177 -17 1181 -17Q1183 -25 1185 -48H1187Q1196 -5 1211 -5ZM258 -6Q282 -11 282 -27V-28Q281 -30 270 -37H267Q267 -30 254
-29H253Q240 -29 233 -39V-43Q233 -49 264 -49Q291 -61 291 -87V-92Q291 -120 269 -130Q264 -133 259 -133H250Q227 -133 211 -108Q211 -103 222 -92H225Q233 -110 255 -110Q273 -110 273 -90Q273 -75 252 -72Q225 -72 220 -60Q216 -52 216 -48V-40Q216 -6 258
-6ZM713 -7Q725 -11 728 -11Q727 -34 727 -45V-51Q727 -84 739 -95H744Q766 -77 766 -23V-13H783V-14Q791 -103 791 -117V-127Q791 -171 763 -187Q753 -191 747 -191Q725 -191 718 -171Q716 -167 716 -162V-153Q716 -138 720 -138L734 -145L733 -153V-157Q733 -165
744 -167H748Q768 -167 773 -134Q774 -130 774 -122V-102L773 -89H772Q762 -119 743 -119H741Q718 -119 711 -69Q710 -61 710 -49V-40Q710 -7 713 -7ZM1033 -8H1041Q1047 -8 1056 -17Q1067 -29 1067 -35Q1056 -48 1055 -48V-48Q1044 -33 1037 -33H1035Q1023 -38
1017 -61L1013 -82Q1013 -104 1027 -106H1030Q1041 -106 1064 -90H1065Q1071 -110 1071 -112Q1046 -130 1024 -130Q1001 -130 996 -84Q996 -50 1015 -20Q1027 -8 1033 -8ZM537 -10H549L555 -11Q555 -14 554 -19Q555 -86 558 -128H540L539 -120Q537 -52 537 -10ZM350
-11Q367 -16 367 -17V-37Q367 -104 379 -104H384Q401 -85 408 -49Q413 -39 414 -11H416Q431 -13 431 -17Q428 -59 428 -76V-86Q428 -96 433 -106Q433 -112 423 -124V-124Q411 -112 411 -99H410Q399 -128 382 -128H379Q350 -128 350 -35V-11ZM454 -67Q454 -101 484
-107H487Q499 -107 502 -81V-78Q502 -42 481 -30L475 -29H473Q456 -29 454 -64V-67ZM583 -82Q583 -104 598 -107H602Q617 -107 631 -78Q633 -74 633 -69V-60Q626 -29 609 -29H607Q586 -29 583 -82ZM816 -37Q816 -40 819 -104L826 -105Q848 -105 852 -63Q849 -29
835 -29H834Q824 -29 816 -37ZM890 -82V-87Q890 -104 905 -107H907Q923 -107 937 -81Q941 -73 941 -63Q935 -29 913 -29Q894 -29 890 -82ZM1092 -82Q1092 -107 1109 -107H1112Q1126 -107 1141 -77Q1143 -71 1143 -67V-60Q1135 -29 1118 -29H1117Q1097 -29 1092
-82ZM977 -96Q986 -96 989 -110V-115Q986 -128 977 -128Q968 -128 966 -113Q967 -96 977 -96ZM717 1368V1126H456Q402 1126 353 1088V1098Q500 1368 717 1368ZM800 1368H810Q942 1368 1089 1219Q1145 1151 1145 1126H800V1368ZM428 1042H717V948Q682 967 642 967H428Q409
967 409 986V1023Q412 1042 428 1042ZM800 1042H1183L1192 948V930Q1192 745 1061 632H894Q800 644 800 725V1042ZM325 967H334Q334 895 474 883H651Q717 883 717 818V715Q717 632 614 632H456Q325 752 325 911V967ZM754 604H763Q824 548 950 548V538Q842 501 763
501H754Q674 501 567 538V548Q699 548 754 604Z" />
<glyph unicode="/" glyph-name="slash" horiz-adv-x="1020" d="M657 1478Q682 1557 770 1557Q788 1557 810 1554Q862 1543 891 1512Q913 1487 914 1455V1439Q913 1429 910 1419Q825 1130 601 583Q379 41 332 -133Q310 -213 222 -213Q201 -213 179 -208Q127 -199
98 -167Q76 -142 75 -113V-94Q76 -86 79 -75Q126 102 350 646Q573 1191 657 1478Z" />
<glyph unicode="0" glyph-name="zero" horiz-adv-x="1583" d="M801 231T965 356Q1163 506 1174 708Q1176 723 1176 736Q1176 865 1104 948Q1040 1023 935 1023Q909 1023 881 1019Q720 982 583 833Q456 698 400 523Q368 426 368 351Q368 302 380 262Q409 172 506
172Q535 172 571 180Q801 231 965 356ZM835 1237Q882 1243 929 1243Q1128 1243 1284 1140Q1488 1007 1488 766Q1488 750 1487 734Q1469 433 1203 213Q969 21 650 -33Q576 -45 511 -45Q322 -45 196 53Q55 160 55 345Q55 409 73 484Q134 745 319 947Q507 1150 761
1221Q782 1228 803 1232Q817 1235 835 1237Z" />
<glyph unicode="1" glyph-name="one" horiz-adv-x="1048" d="M836 271Q856 274 874 274Q969 274 1012 195Q1024 174 1024 152Q1024 130 1011 109Q985 69 914 58Q871 50 558 26Q352 11 220 -41Q186 -55 153 -55Q87 -55 29 -2Q-9 27 -9 65Q-9 74 -6 81Q2 125 70
152Q198 203 336 221Q315 311 315 497Q315 664 337 820Q337 825 334 825Q331 825 325 821Q284 796 237 796Q184 796 123 827Q71 856 62 897V908Q62 950 113 983Q137 999 198 1071Q274 1162 314 1199Q398 1276 475 1276Q555 1276 623 1197Q671 1142 671 1019Q671
986 668 949Q664 905 650 812Q638 736 638 707Q634 570 634 470Q634 293 644 249Q753 258 836 271Z" />
<glyph unicode="2" glyph-name="two" horiz-adv-x="1326" d="M1113 253Q1138 257 1158 257Q1248 257 1289 180Q1301 157 1301 136Q1301 113 1288 94Q1261 54 1191 39Q910 -12 608 -31Q380 -45 337 -45Q154 -40 67 29Q-3 84 -3 150Q-3 258 198 381Q246 409 324
449Q427 503 451 517Q599 597 672 678Q785 802 785 898Q785 940 765 976Q724 1053 666 1053Q652 1053 636 1050Q556 1028 532 928Q520 878 463 857Q431 843 394 843Q377 843 359 846Q299 853 263 885Q228 917 228 960Q228 973 232 986Q260 1100 353 1184Q441 1262
561 1290Q628 1306 688 1306Q876 1306 992 1153Q1090 1027 1090 895Q1090 775 1006 653Q876 468 604 327Q604 326 425 214L364 181Q437 181 500 184Q802 196 1113 253Z" />
<glyph unicode="3" glyph-name="three" horiz-adv-x="1400" d="M1256 832T1331 657Q1360 589 1360 521Q1360 408 1280 295Q1181 155 996 55Q792 -55 561 -55H525Q283 -46 57 76Q2 105 2 147V158Q11 199 63 226Q128 261 185 261Q229 261 266 240Q402 166 552 166Q588
166 624 171Q821 194 948 329Q1051 441 1051 518V530Q1044 610 962 633Q935 641 781 649Q665 653 592 692Q508 735 508 809Q508 835 520 867Q542 919 621 1001Q693 1076 712 1123Q718 1136 718 1145Q718 1184 606 1184Q489 1184 265 1136Q239 1130 216 1130Q129
1130 88 1205Q76 1226 76 1248Q76 1273 89 1292Q116 1333 184 1347Q441 1404 617 1404Q776 1404 868 1357Q1041 1273 1041 1158Q1041 1108 1007 1055Q934 938 882 896Q850 869 850 862Q850 859 854 859Q857 859 862 860Q893 867 906 867H926Q967 867 1007 862Q1256
832 1331 657Z" />
<glyph unicode="4" glyph-name="four" horiz-adv-x="1393" d="M554 718T668 712Q670 716 671 721Q675 740 678 752Q734 1020 738 1067Q700 1042 596 953T424 795Q376 757 347 729H353Q375 729 458 724Q554 718 668 712ZM1240 707H1253Q1309 707 1346 681Q1386
650 1386 604Q1386 560 1347 525Q1307 490 1242 487Q1106 478 968 478Q936 287 936 125Q936 102 938 80V76Q938 23 888 -7Q846 -32 785 -32Q727 -32 683 -8Q628 23 627 78Q625 112 625 148Q625 319 651 487Q590 490 555 493Q528 496 447 498Q363 501 317 505Q151
520 81 575Q25 620 25 685Q25 795 201 958Q282 1032 416 1132Q556 1239 568 1248Q703 1365 850 1412Q900 1427 940 1427Q1080 1427 1080 1252V1246Q1077 1058 1009 698Q1125 699 1240 707Z" />
<glyph unicode="5" glyph-name="five" horiz-adv-x="1389" d="M1258 1300Q1310 1300 1345 1276Q1385 1245 1385 1199Q1385 1152 1346 1120Q1306 1086 1241 1081H1231Q1168 1081 1018 1112Q936 1123 874 1123Q772 1123 720 1097Q683 1078 594 970Q534 896 534 866Q534
859 539 857Q601 833 821 801Q1010 773 1105 704Q1226 616 1226 476Q1226 447 1221 416Q1192 256 1053 143Q848 -25 570 -52Q528 -55 488 -55Q252 -55 68 69Q16 104 16 146Q16 155 19 162Q27 202 80 228Q139 259 190 259Q240 259 280 231Q375 168 499 168Q552 168
612 180Q813 220 882 370Q915 438 915 483Q915 540 857 560Q803 578 600 607Q430 633 340 689Q234 756 234 863Q234 910 254 960Q299 1082 431 1205Q568 1333 829 1333Q854 1333 882 1332Q929 1329 1018 1309Q1124 1299 1195 1299Q1220 1299 1239 1300H1258Z" />
<glyph unicode="6" glyph-name="six" horiz-adv-x="1231" d="M524 184T607 184Q662 184 721 215Q862 288 862 442Q862 453 861 466Q851 625 739 645Q722 648 706 648Q612 648 540 628T424 591T360 544Q357 526 357 483Q357 348 448 258Q524 184 607 184ZM469 830Q575
883 737 883Q762 883 787 881Q1012 865 1115 678Q1170 576 1170 471Q1170 355 1104 235Q980 14 744 -33Q678 -45 616 -45Q439 -45 284 55Q58 202 55 462V466Q55 737 248 1008Q445 1281 708 1365Q737 1373 766 1373Q836 1373 901 1317Q936 1284 936 1251V1240Q925
1192 855 1170Q603 1090 469 830Z" />
<glyph unicode="7" glyph-name="seven" horiz-adv-x="1129" d="M723 1341Q1042 1341 1085 1149Q1092 1121 1092 1088Q1092 907 897 568Q875 532 735 313Q637 156 592 52Q558 -25 455 -25Q430 -25 403 -20Q345 -12 311 20Q286 46 286 78Q286 97 294 117Q344 230
554 556Q724 822 770 1005Q779 1041 779 1068Q779 1109 754 1118Q745 1121 588 1121H150Q84 1121 44 1154Q5 1185 5 1232Q5 1278 44 1310Q84 1341 150 1341H723Z" />
<glyph unicode="8" glyph-name="eight" horiz-adv-x="1154" d="M737 215Q746 229 746 251Q746 278 732 317Q726 331 697 371T630 447Q615 461 591 479Q434 366 402 304Q384 269 384 246Q384 228 396 217Q421 193 506 176L587 170Q717 184 737 215ZM372 1063Q365
1051 365 1037Q365 1024 371 1011Q378 996 399 968T459 908L537 850L573 823Q662 903 681 926Q735 992 749 1030Q753 1043 753 1055Q753 1076 737 1094Q712 1120 683 1124T626 1131Q599 1132 577 1132Q522 1132 490 1126Q443 1116 416 1103T372 1063ZM928 787T864
729Q793 664 786 657L822 628Q888 571 923 534Q1053 394 1053 270Q1053 233 1042 196Q994 56 797 -5Q669 -45 536 -45Q476 -45 416 -37Q201 -7 116 103Q66 166 66 240Q66 324 134 418Q190 496 308 587L380 643Q377 655 275 722T113 877Q55 964 55 1041Q55 1117
109 1181Q200 1290 405 1332Q502 1354 593 1354Q679 1354 758 1335Q976 1286 1039 1154Q1059 1109 1059 1060Q1059 954 961 829Q928 787 864 729Z" />
<glyph unicode="9" glyph-name="nine" horiz-adv-x="1295" d="M686 691T742 745T821 849Q858 954 858 1026Q858 1049 854 1068Q841 1130 785 1130Q756 1130 718 1118Q500 1046 421 939Q368 868 368 794Q368 749 387 705Q410 654 453 637Q474 628 499 628Q531 628
572 644Q686 691 742 745ZM1097 533T951 54Q919 -25 815 -25Q792 -25 765 -20Q707 -12 674 20Q645 46 645 81Q645 100 653 118Q675 176 738 332Q794 467 801 486Q619 389 445 389Q239 389 127 566Q55 680 55 791Q55 913 141 1031Q283 1224 562 1307Q688 1344 793
1344Q924 1344 1020 1286Q1163 1201 1163 1019Q1163 939 1130 736Z" />
<glyph unicode=":" glyph-name="colon" horiz-adv-x="536" d="M360 282T404 245Q441 210 441 168Q441 147 431 126L408 73Q364 -25 250 -25Q221 -25 191 -19Q134 -8 91 32Q55 65 55 107Q55 128 64 151L77 178L89 204Q134 299 245 299Q273 299 307 293Q360 282
404 245ZM360 1078T404 1041Q441 1006 441 964Q441 943 431 922L408 869Q364 771 250 771Q221 771 191 777Q134 788 91 828Q55 861 55 903Q55 924 64 947L77 974L89 1000Q134 1095 245 1095Q273 1095 307 1089Q360 1078 404 1041Z" />
<glyph unicode=";" glyph-name="semicolon" horiz-adv-x="536" d="M112 175T112 185Q112 229 153 257Q191 282 249 283H254Q396 283 414 177Q421 128 421 83Q421 -74 349 -193Q252 -346 173 -371Q149 -373 131 -373Q22 -373 -8 -297Q-15 -281 -15 -264Q-15 -227
16 -198Q43 -171 80 -117T120 87Q120 126 115 167Q112 175 112 185ZM360 1078T404 1041Q441 1006 441 964Q441 943 431 922L408 869Q364 771 250 771Q221 771 191 777Q134 788 91 828Q55 861 55 903Q55 924 64 947L77 974L89 1000Q134 1095 245 1095Q273 1095 307
1089Q360 1078 404 1041Z" />
<glyph unicode="&lt;" glyph-name="less" horiz-adv-x="1198" d="M813 1276Q855 1314 922 1314Q965 1314 1016 1298Q1074 1280 1094 1246Q1103 1230 1103 1214Q1103 1182 1070 1153Q856 966 630 810Q407 657 382 623Q375 614 375 605Q375 532 607 378Q701 315
832 241L970 163Q1026 130 1026 87V77Q1017 34 963 8Q902 -25 848 -25Q802 -25 762 -1L586 97Q432 182 330 251Q55 442 55 596Q55 631 69 663Q111 759 311 899Q635 1123 813 1276Z" />
<glyph unicode="=" glyph-name="equal" horiz-adv-x="1216" d="M220 754T200 754Q109 754 67 833Q55 854 55 876Q55 898 68 919Q94 959 165 972Q434 1018 667 1018Q840 1018 995 993Q1066 980 1091 941Q1104 922 1104 897Q1104 875 1092 854Q1051 776 958 776Q938
776 916 779Q801 799 667 799Q474 799 244 758Q220 754 200 754ZM1043 489T1082 456Q1121 422 1121 377Q1121 330 1082 300Q1047 275 995 275H976Q723 293 539 293Q372 293 263 278Q244 275 227 275Q131 275 87 357Q75 380 75 401Q75 424 88 443Q116 482 187 492Q336
513 545 513Q738 513 979 495Q1043 489 1082 456Z" />
<glyph unicode="&gt;" glyph-name="greater" horiz-adv-x="1198" d="M345 13Q303 -25 236 -25Q193 -25 142 -9Q84 9 64 43Q55 59 55 75Q55 107 88 136Q302 323 528 479Q751 632 776 666Q783 675 783 684Q783 757 551 911Q457 974 326 1048L188 1126Q132 1159 132
1202V1212Q141 1255 195 1281Q256 1314 310 1314Q356 1314 396 1290L572 1192Q726 1107 828 1038Q1103 847 1103 693Q1103 658 1089 626Q1047 530 847 390Q523 166 345 13Z" />
<glyph unicode="?" glyph-name="question" horiz-adv-x="1023" d="M691 1558T802 1487Q921 1412 957 1291L962 1273Q974 1220 974 1171Q974 1079 933 1001Q892 920 778 814Q652 695 615 644Q547 549 547 498V483Q547 434 498 396Q469 374 431 364Q418 360 401
356Q384 354 369 354Q328 354 298 370Q257 388 246 428Q242 441 242 456V472Q242 693 539 914Q677 1017 677 1119Q677 1143 670 1167Q667 1176 664 1185Q609 1324 500 1324H490Q469 1323 448 1317Q361 1291 309 1171Q283 1110 213 1090Q180 1080 136 1080H128Q68
1081 36 1111Q22 1124 16 1143Q13 1153 13 1165Q13 1186 23 1210Q93 1368 232 1468Q307 1521 389 1545Q454 1565 524 1565Q538 1565 551 1564Q691 1558 802 1487ZM492 282T536 245Q573 210 573 168Q573 147 563 126L540 73Q496 -25 382 -25Q353 -25 323 -19Q266
-8 223 32Q187 65 187 107Q187 128 196 151L209 178L221 204Q266 299 377 299Q405 299 439 293Q492 282 536 245Z" />
<glyph unicode="@" glyph-name="at" horiz-adv-x="1814" d="M969 496T1077 521Q1088 621 1088 688Q1088 761 1077 816Q1073 835 1059 877Q1046 915 971 915H958Q871 911 788 710Q763 649 763 605Q763 492 905 492Q918 492 934 493Q969 496 1077 521ZM1141 1589Q1442
1589 1610 1292Q1719 1101 1719 898Q1719 815 1700 732Q1668 575 1581 465Q1524 395 1438 368T1074 327Q993 322 931 322Q868 322 821 327Q642 346 554 461Q502 531 502 613Q502 682 537 757Q609 909 733 1006Q868 1113 1027 1118H1037Q1344 1118 1344 676Q1344
615 1342 590Q1352 595 1382 705Q1405 788 1405 856V865Q1401 1108 1281 1262Q1202 1365 1100 1365Q1026 1365 939 1312Q592 1100 438 739Q365 573 365 445Q365 414 369 385Q394 207 588 146Q726 102 863 102Q942 102 1020 117Q1254 162 1357 246T1501 353Q1524
365 1550 365Q1568 365 1587 359Q1643 341 1666 305Q1677 287 1677 266Q1677 235 1652 205Q1629 177 1616 164Q1394 -56 1032 -110Q930 -125 835 -125Q592 -125 389 -28Q102 108 61 381Q55 425 55 469Q55 674 190 906Q593 1589 1141 1589Z" />
<glyph unicode="A" glyph-name="A" horiz-adv-x="1707" d="M1025 703Q914 966 849 1161Q748 1007 693 884T609 703H1025ZM1394 590T1670 114Q1682 93 1682 71Q1682 43 1660 20Q1629 -12 1570 -20Q1539 -25 1513 -25Q1415 -25 1374 43Q1187 368 1114 492Q1108 491
516 488L274 38Q233 -21 159 -21Q123 -21 80 -8Q23 9 -2 47Q-15 68 -15 91Q-15 119 3 148L402 947Q429 990 480 1083Q536 1190 565 1236Q675 1421 785 1488Q837 1519 889 1519Q944 1519 990 1485Q1084 1363 1239 977Z" />
<glyph unicode="B" glyph-name="B" horiz-adv-x="1374" d="M378 195H443Q626 195 752 228Q963 286 963 431V440Q959 573 804 609Q749 620 655 625Q582 628 525 650Q475 669 475 741Q475 751 476 761Q483 851 599 912Q736 981 819 1038Q957 1132 957 1199Q957 1250
874 1294Q805 1330 718 1330Q678 1330 635 1322Q496 1299 486 1206Q467 1034 433 689Q393 341 378 195ZM910 800Q1280 734 1280 471Q1280 419 1262 362Q1145 -25 467 -25Q348 -25 213 -13H199Q154 -13 121 3Q95 12 82 28L80 29Q77 32 75 34Q55 60 55 89V97L142
909Q174 1207 191 1258Q249 1435 447 1503Q585 1552 728 1552Q793 1552 860 1542Q1105 1504 1214 1334Q1265 1255 1265 1179Q1265 1079 1177 987Q1082 885 910 800Z" />
<glyph unicode="C" glyph-name="C" horiz-adv-x="1469" d="M1419 1496T1439 1362Q1442 1339 1442 1314Q1442 1224 1395 1123Q1359 1048 1258 1048Q1233 1048 1206 1052Q1145 1063 1112 1094Q1087 1120 1087 1151Q1087 1170 1098 1190Q1111 1220 1111 1245Q1111
1285 1076 1316Q1044 1345 1010 1345Q981 1345 947 1325Q864 1275 826 1246Q697 1145 612 1035Q413 778 378 545Q366 471 366 408Q366 250 442 182Q495 133 583 133Q640 133 712 155Q808 182 995 280Q1033 300 1075 300Q1132 300 1199 264Q1251 236 1260 197V186Q1260
143 1203 116Q814 -85 548 -85Q372 -85 250 4Q95 118 63 323Q55 375 55 428Q55 555 100 695Q277 1240 737 1488Q935 1594 1100 1594Q1200 1594 1289 1555Q1419 1496 1439 1362Z" />
<glyph unicode="D" glyph-name="D" horiz-adv-x="1566" d="M1144 675Q1164 755 1164 827Q1164 975 1071 1084Q908 1270 550 1270Q509 1270 484 1268Q474 1148 419 728Q372 379 368 197Q634 202 837 307Q1082 431 1144 675ZM480 1488T592 1488Q744 1488 855 1468Q1145
1418 1307 1233Q1472 1043 1472 810Q1472 748 1460 682Q1388 294 972 106Q685 -25 335 -25Q273 -25 209 -20Q55 -12 55 89V102Q55 338 108 731Q171 1201 181 1368Q184 1425 242 1456Q283 1477 335 1477H348Q480 1488 592 1488Z" />
<glyph unicode="E" glyph-name="E" horiz-adv-x="1410" d="M1170 1544H1183Q1239 1544 1275 1518Q1316 1490 1316 1440Q1313 1396 1276 1362Q1236 1328 1173 1324Q1057 1315 826 1300Q597 1285 502 1278Q497 1221 482 1062Q467 904 461 854Q527 860 726 875Q921
890 1023 897H1036Q1093 897 1130 871Q1169 843 1169 796Q1169 749 1130 717Q1091 682 1026 678Q925 669 721 654Q517 639 435 633Q389 304 375 183Q412 176 494 176Q587 176 706 191Q1029 228 1065 230H1072Q1132 230 1172 201Q1211 173 1211 127V124Q1211 77
1172 45Q1132 12 1067 10Q984 7 839 -8Q664 -27 604 -30Q533 -35 467 -35Q274 -35 137 8Q55 37 55 98V107Q60 169 138 734Q169 1057 201 1380Q210 1480 354 1488L1170 1544Z" />
<glyph unicode="F" glyph-name="F" horiz-adv-x="1208" d="M1038 1552H1051Q1107 1552 1143 1527Q1183 1501 1183 1452V1449Q1183 1405 1144 1370Q1105 1336 1041 1333Q939 1325 765 1310Q558 1297 501 1291Q464 975 444 810Q453 810 669 819Q800 826 912 835H931Q983
835 1017 812Q1058 783 1058 735Q1057 690 1019 655Q979 621 915 616Q803 605 660 599Q455 590 419 588Q368 187 366 86Q366 30 312 -1Q270 -25 209 -25Q150 -25 108 -1L55 31Q105 551 120 692Q174 1160 201 1394Q213 1493 354 1501Q558 1516 1038 1552Z" />
<glyph unicode="G" glyph-name="G" horiz-adv-x="1664" d="M1247 1355T1193 1355Q1032 1355 860 1233Q654 1085 510 827Q378 588 378 403V382Q385 188 561 171Q581 170 601 170Q759 170 950 456Q1266 911 1354 946Q1415 972 1457 972Q1462 973 1469 973Q1527 973
1559 920Q1583 871 1583 773Q1583 704 1510 449T1400 67Q1374 -5 1371 -37Q1367 -91 1312 -122Q1268 -145 1218 -145Q1158 -143 1121 -117Q1090 -86 1090 -41V-34Q1092 -10 1193 302L1092 169Q957 11 802 -21Q699 -42 604 -42Q472 -42 356 -4Q106 83 66 319Q55
382 55 446Q55 620 134 805Q235 1044 437 1236Q639 1433 882 1520Q1038 1574 1186 1574Q1286 1574 1382 1549Q1452 1532 1476 1489Q1488 1468 1488 1447Q1488 1424 1476 1403Q1456 1365 1408 1347Q1378 1334 1348 1334Q1324 1334 1300 1341Q1247 1355 1193 1355Z"
/>
<glyph unicode="H" glyph-name="H" horiz-adv-x="1622" d="M1216 1424Q1224 1477 1279 1507Q1324 1531 1382 1531Q1442 1530 1482 1505Q1527 1477 1527 1428V1419L1443 750Q1422 529 1382 83Q1375 29 1321 -1Q1277 -25 1217 -25Q1158 -25 1117 2Q1071 30 1071
78V87Q1078 179 1098 376Q1114 562 1122 633Q883 619 412 590Q390 348 366 84Q361 29 305 -1Q263 -25 202 -25Q141 -25 102 2Q55 30 55 78V87Q64 188 82 391Q100 592 109 692L172 1438Q176 1494 232 1522Q271 1546 329 1546H335Q395 1546 435 1521Q483 1492 483
1442V1435L431 812Q926 841 1146 855Q1167 1031 1216 1424Z" />
<glyph unicode="I" glyph-name="I" horiz-adv-x="608" d="M202 1363Q224 1467 370 1467H374Q435 1465 472 1440Q513 1414 513 1370Q513 1362 512 1353Q470 1145 366 84Q361 29 305 -1Q263 -25 202 -25Q141 -25 102 2Q55 30 55 78V87Q159 1153 202 1363Z" />
<glyph unicode="J" glyph-name="J" horiz-adv-x="1071" d="M670 1429Q686 1480 745 1500Q779 1512 817 1512Q833 1512 849 1510Q909 1502 944 1470Q976 1441 976 1401Q976 1384 970 1369Q925 1214 925 882V740Q925 398 864 220Q778 -25 568 -25Q514 -25 454 -9Q239
49 16 266Q-15 294 -15 326Q-15 345 -6 361Q14 395 74 414Q123 429 163 429Q232 429 276 387Q445 222 525 194L537 214Q596 338 609 604Q648 1353 670 1429Z" />
<glyph unicode="K" glyph-name="K" horiz-adv-x="1456" d="M1011 418Q1221 246 1334 122Q1361 90 1361 60Q1361 42 1352 25Q1329 -12 1271 -30Q1224 -45 1184 -45Q1113 -45 1071 2Q954 130 540 461Q527 472 489 499L456 522Q424 293 359 77Q346 29 287 8Q255 -6
217 -6Q200 -6 181 -3Q122 6 87 38Q55 67 55 105Q55 122 61 137Q150 435 222 1422Q226 1477 280 1508Q325 1532 383 1532Q443 1531 485 1506Q533 1476 533 1426V1419Q527 1346 518 1189Q507 1039 505 1007Q878 1233 1003 1435Q1044 1502 1144 1502Q1170 1502 1199
1498Q1258 1487 1288 1458Q1310 1435 1310 1407Q1310 1386 1298 1364Q1191 1192 994 1043Q930 995 816 919Q682 829 635 796Q623 787 623 774Q623 724 749 616Q809 566 902 497Q1004 424 1011 418Z" />
<glyph unicode="L" glyph-name="L" horiz-adv-x="1085" d="M803 232Q815 234 827 234Q931 234 978 147Q990 126 990 104Q990 82 977 63Q951 26 694 -5Q552 -25 455 -25H449Q143 -25 77 147Q55 204 55 305Q55 412 78 570Q168 1181 196 1428Q203 1483 257 1512Q302
1536 361 1536Q420 1536 461 1509Q507 1484 507 1433V1424Q501 1368 413 851Q360 547 360 342Q360 312 362 284Q367 192 505 192H526Q580 193 674 211Q781 231 803 232Z" />
<glyph unicode="M" glyph-name="M" horiz-adv-x="1856" d="M1731 1473Q1814 1397 1814 1161V1155Q1809 1089 1794 981Q1776 854 1772 825Q1749 587 1727 391Q1710 242 1710 141Q1710 109 1712 81L1711 72Q1708 23 1663 -6Q1621 -33 1561 -35Q1500 -35 1456 -8Q1402
24 1401 81Q1399 112 1399 147Q1399 248 1415 381Q1435 559 1452 737L1502 1175Q1494 1165 1408 1025Q1316 874 1304 856Q1140 638 997 538Q931 493 863 493Q799 493 737 535Q630 608 588 751Q580 780 534 971Q502 1104 500 1164Q465 1060 438 955Q354 586 290
95Q282 38 226 7Q182 -19 123 -19Q61 -19 21 10Q-22 38 -22 88V95L-21 102Q35 534 94 805Q163 1131 213 1320Q218 1340 306 1437Q399 1539 488 1539Q618 1539 722 1322Q773 1213 828 1029Q882 810 899 804Q913 806 971 876Q995 904 1090 1043Q1316 1373 1373 1423Q1498
1529 1599 1529Q1672 1529 1731 1473Z" />
<glyph unicode="N" glyph-name="N" horiz-adv-x="1664" d="M1258 1403Q1262 1458 1316 1488Q1359 1513 1420 1513Q1479 1512 1521 1487Q1569 1457 1569 1407V1400Q1563 1291 1556 1058Q1550 833 1542 714Q1541 698 1536 568Q1533 463 1526 393Q1502 177 1419 84Q1344
1 1250 1Q1116 1 952 180Q849 290 635 628Q542 773 384 1053L381 974Q369 688 366 87Q366 32 312 2Q270 -25 209 -25Q150 -25 108 2Q55 33 55 87Q58 786 73 1027Q90 1316 131 1402Q183 1510 280 1510Q322 1510 371 1489Q493 1436 569 1312L1087 525Q1221 298 1221
269L1246 1093Q1252 1291 1258 1403Z" />
<glyph unicode="O" glyph-name="O" horiz-adv-x="1623" d="M1254 875Q1263 936 1263 989Q1263 1156 1183 1254Q1099 1357 946 1357Q891 1357 829 1345Q649 1296 508 1097Q387 924 334 710Q305 590 305 482Q305 406 319 336Q358 155 497 155Q522 155 551 161Q812
211 1012 412Q1216 616 1254 875ZM782 1563Q869 1578 950 1578Q1186 1578 1361 1453Q1578 1299 1578 1024Q1578 971 1571 914Q1517 535 1240 262Q964 -13 583 -59Q537 -65 493 -65Q235 -65 100 132Q-5 284 -5 494Q-5 571 9 656Q59 959 237 1198Q428 1453 704 1543Q725
1553 749 1558Q766 1562 782 1563Z" />
<glyph unicode="P" glyph-name="P" horiz-adv-x="1439" d="M970 970Q1054 1062 1086 1145Q1101 1185 1101 1216Q1101 1274 1042 1306Q974 1344 857 1344Q775 1344 669 1324Q427 1283 388 763Q800 785 970 970ZM1356 1448T1394 1235Q1400 1201 1400 1169Q1400 994
1229 849Q905 571 377 545Q375 511 374 289Q372 138 366 74Q361 18 305 -11Q264 -35 208 -35H202Q141 -35 100 -10Q55 18 55 67V77Q69 201 81 467Q91 724 108 860Q157 1260 253 1368Q387 1515 660 1560Q755 1575 842 1575Q987 1575 1111 1532Q1356 1448 1394 1235Z"
/>
<glyph unicode="Q" glyph-name="Q" horiz-adv-x="1733" d="M1312 874Q1321 938 1321 993Q1321 1156 1242 1254Q1159 1358 1006 1358Q952 1358 889 1345Q709 1296 567 1097Q447 925 394 711Q365 591 365 484Q365 408 379 336Q417 155 557 155Q582 155 611 161Q702
178 766 207Q745 238 719 296Q711 316 711 334Q711 367 737 393Q770 424 828 433Q855 437 880 437Q983 437 1016 361Q1268 562 1312 874ZM841 1564Q929 1579 1009 1579Q1245 1579 1419 1454Q1638 1300 1638 1024Q1638 971 1631 915Q1560 424 1175 156Q1184 149
1216 149Q1225 149 1233 151Q1255 158 1279 158Q1308 158 1339 148Q1404 126 1423 78Q1431 59 1431 40Q1431 -30 1316 -60Q1259 -75 1205 -75Q1057 -75 936 20Q798 -38 643 -58Q597 -64 553 -64Q295 -64 158 133Q55 284 55 493Q55 572 69 656Q119 959 297 1198Q488
1453 764 1544Q785 1554 809 1558Q823 1562 841 1564Z" />
<glyph unicode="R" glyph-name="R" horiz-adv-x="1432" d="M447 854Q479 853 510 853Q839 853 1002 990Q1026 1018 1026 1079V1089Q1026 1144 994 1199Q944 1287 844 1317Q774 1340 718 1340Q584 1340 525 1210Q502 1162 447 854ZM1158 781Q1085 738 867 677Q731
640 616 636Q649 563 773 469T1260 135Q1311 100 1311 59Q1311 51 1309 45Q1301 3 1249 -23Q1189 -55 1138 -55Q1088 -55 1047 -27Q492 343 396 522Q369 330 366 85Q366 30 314 -1Q273 -26 217 -26H211Q150 -26 108 -2Q55 30 55 85Q57 213 162 1020Q191 1238 243
1332Q318 1467 500 1529Q606 1564 718 1564Q852 1564 994 1513Q1281 1408 1328 1165Q1337 1128 1337 1091Q1337 1017 1305 946Q1258 839 1158 781Z" />
<glyph unicode="S" glyph-name="S" horiz-adv-x="1556" d="M792 1540Q925 1571 1054 1571Q1141 1571 1227 1558Q1496 1513 1496 1327Q1496 1299 1489 1270Q1468 1166 1322 1166H1318Q1258 1167 1218 1192Q1177 1220 1177 1263Q1177 1273 1180 1282Q1182 1291 1182
1302Q1182 1340 1136 1353Q1115 1358 1088 1358Q1036 1358 961 1339Q705 1277 625 1189Q563 1121 563 1066Q563 1003 646 949Q712 906 976 820Q1425 673 1425 408Q1425 395 1424 382Q1390 -42 853 -72Q807 -75 761 -75Q394 -75 69 77Q4 109 -5 158V168Q-5 206 30
239Q88 287 148 287Q184 287 222 270Q512 134 724 134Q843 134 937 177Q1030 219 1082 289Q1117 338 1117 384Q1117 415 1101 448Q1049 545 927 602Q865 632 681 685Q513 734 430 784Q302 864 256 1001Q241 1043 241 1084Q241 1231 419 1364Q591 1496 792 1540Z"
/>
<glyph unicode="T" glyph-name="T" horiz-adv-x="1528" d="M1331 1541Q1396 1541 1438 1511Q1478 1479 1478 1431Q1475 1385 1437 1355Q1397 1322 1331 1322Q1149 1319 891 1297Q882 1209 849 1032Q807 727 798 671Q771 501 771 363Q771 222 799 117Q803 102 803
89Q803 49 771 19Q735 -13 675 -22Q657 -25 640 -25Q602 -25 569 -11Q512 10 499 60Q466 186 466 348Q466 485 489 647Q499 722 537 1013Q568 1195 576 1271Q298 1245 156 1238H143Q87 1238 49 1265Q10 1293 10 1339V1342Q10 1389 49 1421Q88 1456 154 1457Q294
1465 695 1501Q719 1505 746 1505H757Q1123 1538 1331 1541Z" />
<glyph unicode="U" glyph-name="U" horiz-adv-x="1392" d="M976 1334Q976 1384 1024 1413Q1074 1436 1126 1436Q1179 1436 1234 1413Q1283 1385 1287 1330Q1298 1212 1298 1102Q1298 827 1219 555Q1059 -34 619 -63Q597 -65 577 -65Q147 -65 70 545Q55 675 55
797Q55 1058 119 1318Q137 1422 284 1422H289Q349 1422 387 1395Q431 1371 431 1325Q431 1315 428 1306Q362 1037 362 800Q362 596 409 438Q438 335 485 253Q541 153 587 153Q589 153 593 154Q765 188 886 535Q987 803 987 1111Q987 1213 976 1327V1334Z" />
<glyph unicode="V" glyph-name="V" horiz-adv-x="1688" d="M1351 1342Q1390 1398 1465 1398Q1500 1398 1544 1385Q1602 1368 1625 1330Q1638 1309 1638 1287Q1638 1258 1618 1228Q1519 1084 1355 789Q1184 485 1093 346Q962 154 885 80Q774 -25 671 -25Q615 -25
564 6Q443 78 351 280Q333 320 232 600Q71 1046 13 1331Q10 1339 10 1349Q10 1393 52 1419Q91 1444 151 1444H160Q301 1444 323 1342Q371 1105 511 718Q663 291 686 261Q755 324 985 726Q1270 1222 1351 1342Z" />
<glyph unicode="W" glyph-name="W" horiz-adv-x="2197" d="M1826 1304Q1833 1359 1886 1387Q1931 1411 1991 1411Q2050 1411 2091 1386Q2137 1358 2137 1308V1300Q2058 510 1815 135Q1712 -25 1598 -25Q1499 -25 1402 92Q1276 241 1176 531Q1113 704 1112 704Q1016
588 857 328T624 20Q570 -16 506 -16Q479 -16 450 -9Q360 11 303 84Q163 262 103 697Q80 815 58 1007Q29 1232 23 1281Q20 1289 20 1298Q20 1342 64 1371Q103 1396 164 1398H168Q315 1398 333 1291Q442 457 513 311Q531 336 552 364Q608 446 665 531Q796 765 927
887Q986 945 1066 968Q1107 979 1146 979Q1189 979 1230 964Q1348 920 1420 757Q1420 753 1505 506Q1570 313 1572 292Q1584 314 1608 378Q1780 839 1826 1304Z" />
<glyph unicode="X" glyph-name="X" horiz-adv-x="1277" d="M790 736Q825 687 851 648L1240 90Q1246 77 1248 68Q1250 61 1252 52V45Q1252 15 1229 -8Q1199 -41 1138 -49Q1111 -54 1086 -54Q986 -54 947 20L633 509L287 20Q247 -54 147 -54Q122 -54 95 -49Q35 -41
5 -8Q-16 14 -16 40Q-16 47 -15 53Q-13 61 -11 68Q-8 78 -1 92L425 649Q453 688 489 737Q179 1209 121 1318Q117 1328 115 1336Q113 1344 111 1352Q110 1357 110 1362Q110 1392 132 1414Q163 1445 224 1456Q250 1459 273 1459Q375 1459 414 1385Q494 1241 645 947Q821
1270 908 1415Q951 1488 1052 1488Q1075 1488 1101 1485Q1161 1474 1191 1443Q1211 1421 1211 1394Q1211 1388 1210 1381Q1208 1373 1206 1364Q1202 1356 1199 1346Q1088 1166 790 736Z" />
<glyph unicode="Y" glyph-name="Y" horiz-adv-x="1541" d="M1202 1456Q1243 1512 1317 1512Q1353 1512 1396 1499Q1455 1481 1478 1445Q1491 1426 1491 1401Q1491 1372 1469 1343Q1413 1231 1215 997Q1095 864 991 773Q984 766 966 748Q947 725 938 719Q928 704
915 700Q904 646 879 472T827 83Q822 29 766 -1Q721 -25 661 -25Q602 -23 561 2Q516 30 516 78V88Q530 197 557 411Q584 627 596 724L37 1339Q10 1371 10 1400Q10 1419 19 1434Q39 1472 99 1490Q147 1504 187 1504Q255 1504 299 1460Q376 1372 536 1196Q698 1019
756 950Q771 961 906 1081T1202 1456Z" />
<glyph unicode="Z" glyph-name="Z" horiz-adv-x="1275" d="M1161 206T1200 169Q1237 133 1240 87Q1240 35 1200 6Q1164 -20 1113 -20H1095L396 -25Q250 -25 210 -20Q83 -5 28 64Q-15 121 -15 192Q-15 307 101 456Q135 498 392 747Q703 1050 799 1203Q834 1254
847 1280L262 1283Q196 1283 155 1318Q116 1348 116 1398Q116 1445 155 1479Q196 1514 262 1514Q276 1514 335 1517Q416 1523 461 1524Q555 1529 636 1529Q718 1529 785 1524Q1184 1500 1184 1337Q1184 1313 1177 1291Q1109 1073 877 835Q817 772 680 643Q553 525
493 462Q337 295 311 231Q305 217 305 208Q305 195 339 195Q362 195 410 202Q466 210 482 210Q717 221 879 221Q1013 221 1098 214Q1161 206 1200 169Z" />
<glyph unicode="[" glyph-name="bracketleft" horiz-adv-x="928" d="M755 1561T794 1527Q833 1493 833 1449V1446Q833 1401 794 1371Q754 1343 694 1343H687Q655 1345 628 1345Q513 1345 476 1322Q425 1290 420 1160Q417 1064 410 874L383 393Q366 199 365 54V35Q365
-190 455 -190Q462 -190 469 -188Q498 -179 526 -179Q599 -179 662 -236Q699 -268 699 -302Q699 -308 697 -317Q685 -361 615 -381Q465 -426 353 -426Q295 -426 245 -413Q55 -363 55 -138V-116Q60 3 69 83Q78 322 82 441Q93 714 114 1290Q122 1508 329 1556Q377
1567 502 1567Q580 1567 689 1563Q755 1561 794 1527Z" />
<glyph unicode="\" glyph-name="backslash" horiz-adv-x="1020" d="M378 1191T601 646Q825 102 877 -72Q880 -83 882 -95V-110Q881 -141 859 -166Q830 -198 778 -207Q756 -212 734 -212Q647 -212 624 -132Q572 41 350 583Q126 1130 41 1419Q38 1429 37 1437V1456Q37
1487 59 1512Q88 1543 141 1554Q162 1557 181 1557Q270 1557 293 1478Q378 1191 601 646Z" />
<glyph unicode="]" glyph-name="bracketright" horiz-adv-x="928" d="M133 -420T94 -386Q55 -352 55 -308V-305Q55 -260 94 -230Q134 -202 194 -202H201Q233 -204 260 -204Q375 -204 412 -181Q463 -149 468 -19Q471 77 478 267L505 748Q522 942 523 1087V1106Q523
1331 433 1331Q426 1331 419 1329Q390 1320 362 1320Q289 1320 226 1377Q189 1409 189 1443Q189 1449 191 1458Q203 1502 273 1522Q423 1567 535 1567Q593 1567 643 1554Q833 1504 833 1279V1257Q828 1138 819 1058Q810 819 806 700Q795 427 774 -149Q766 -367
559 -415Q511 -426 386 -426Q308 -426 199 -422Q133 -420 94 -386Z" />
<glyph unicode="^" glyph-name="asciicircum" horiz-adv-x="1360" d="M906 1440T1058 1253Q1202 1074 1259 905Q1265 887 1265 871Q1265 833 1234 804Q1200 774 1142 765Q1122 762 1103 762Q1067 762 1035 774Q975 794 959 842Q874 1102 654 1279Q591 1224 500
1077Q374 875 345 837Q305 783 229 783Q192 783 148 796Q89 814 68 851Q55 869 55 892Q55 924 79 953Q103 984 191 1129Q278 1274 339 1351Q493 1547 643 1547Q698 1547 753 1519Q906 1440 1058 1253Z" />
<glyph unicode="_" glyph-name="underscore" horiz-adv-x="1223" d="M1357 -41T1368 -88V-99Q1368 -132 1333 -165Q1271 -221 1199 -221Q1170 -221 1143 -212H689Q629 -212 557 -220Q-15 -222 -15 -223H-46Q-106 -223 -145 -194Q-185 -162 -185 -115Q-185 -69
-146 -38Q-106 -5 -41 -3Q39 -2 411 9Q546 -3 602 -3H621Q670 0 715 0Q871 7 989 7Q1197 7 1286 -16Q1357 -41 1368 -88Z" />
<glyph unicode="`" glyph-name="grave" horiz-adv-x="792" d="M651 1691Q698 1654 698 1612Q698 1603 695 1594Q686 1553 633 1527Q578 1498 530 1498Q478 1498 435 1533Q262 1674 158 1764Q111 1801 111 1843Q111 1852 114 1861Q123 1902 176 1928Q231 1957 279
1957Q331 1957 374 1922Q430 1877 485 1827Q596 1736 651 1691Z" />
<glyph unicode="a" glyph-name="a" horiz-adv-x="1015" d="M924 562T902 471Q883 391 879 349Q877 334 877 321Q877 214 958 134Q984 107 984 79Q984 63 976 47Q956 16 905 0Q863 -13 827 -13Q766 -13 727 25Q673 80 648 127Q489 -9 314 -9Q231 -9 150 26Q5 90
5 266Q5 305 12 350Q42 536 155 688Q280 856 444 943Q551 1000 646 1000Q741 1000 821 945Q890 898 918 787Q935 724 935 664Q935 635 931 606Q924 562 902 471ZM285 305V292Q285 204 325 204Q353 204 401 233Q528 311 604 434Q659 563 659 660Q659 687 654 710Q641
785 626 789H623Q606 789 563 759Q447 677 371 560Q288 431 285 305Z" />
<glyph unicode="b" glyph-name="b" horiz-adv-x="1018" d="M94 1100T136 1281Q148 1332 165 1396Q178 1449 178 1454Q188 1501 237 1526Q275 1546 324 1546H329Q381 1546 417 1523Q454 1499 454 1459Q454 1452 452 1443Q366 1138 325 885Q443 1001 586 1006H603Q743
1006 864 929Q991 847 991 707V696Q986 576 889 428Q715 163 491 42Q357 -31 246 -31Q177 -31 116 -3Q9 74 6 280V304Q6 494 49 788Q94 1100 136 1281ZM286 532Q261 460 261 372Q261 336 265 298Q279 202 318 202Q334 202 354 213Q483 296 546 376Q697 564 697
682Q697 694 695 705Q684 788 633 806Q617 812 599 812Q568 812 531 795Q488 776 418 718Q318 633 286 532Z" />
<glyph unicode="c" glyph-name="c" horiz-adv-x="938" d="M695 348T753 348Q790 348 835 334Q887 318 904 287Q913 273 913 258Q913 229 883 203Q726 65 565 8Q468 -26 380 -26Q281 -26 193 18Q63 82 33 237Q25 281 25 325Q25 413 56 508Q109 671 209 805Q331
969 474 1014Q535 1033 588 1033Q661 1033 718 997Q817 934 836 782V773Q836 730 795 704Q760 682 707 681Q655 681 616 702Q567 728 561 776Q561 796 562 816Q506 772 463 718Q344 565 313 426Q297 357 297 305Q297 225 335 190Q360 168 395 168Q489 168 657 315Q695
348 753 348Z" />
<glyph unicode="d" glyph-name="d" horiz-adv-x="1216" d="M1047 277Q1078 290 1112 290Q1127 290 1141 288Q1197 281 1230 245Q1251 220 1251 193Q1251 175 1242 157Q1223 123 1181 105Q1042 48 956 34Q922 29 892 29Q780 29 723 102Q722 103 721 103Q573 -25
394 -25Q279 -25 160 38Q31 128 31 315Q31 344 34 375Q65 585 181 718Q380 949 665 949Q721 949 758 943Q764 963 831 1190Q879 1352 910 1457Q922 1501 975 1520Q1004 1530 1037 1530Q1052 1530 1067 1528Q1119 1521 1150 1492Q1178 1466 1178 1431Q1178 1417
1174 1404Q1145 1304 1086 1104Q1027 903 998 804Q943 523 943 353Q943 270 950 240Q967 244 1047 277ZM311 365Q310 345 310 328Q310 221 349 164Q367 138 391 138Q449 138 553 263Q627 342 672 438Q672 445 675 451Q681 502 696 611Q711 719 715 750H685Q555
750 447 652Q320 535 311 365Z" />
<glyph unicode="e" glyph-name="e" horiz-adv-x="891" d="M707 383Q740 415 781 415Q819 415 863 387Q904 358 919 331Q929 317 929 299Q929 270 901 244Q630 -28 391 -28Q264 -28 147 48Q16 133 16 325Q16 379 26 441Q66 673 192 832Q348 1026 579 1037H592Q668
1037 737 991Q823 935 823 849V847Q823 670 634 525Q473 401 294 369Q290 346 290 313Q290 239 327 202Q358 172 399 172Q452 172 522 218Q579 256 707 383ZM458 766Q381 672 362 612Q484 664 530 770Q546 806 546 824Q546 827 543 827H542Q504 825 458 766Z" />
<glyph unicode="f" glyph-name="f" horiz-adv-x="821" d="M767 1593T832 1486Q861 1441 861 1378Q861 1313 830 1229Q814 1187 762 1169Q725 1157 693 1157H683Q645 1161 616 1190Q590 1214 590 1247Q590 1261 595 1277Q617 1337 617 1370Q617 1387 612 1391Q596
1403 580 1403Q573 1403 566 1400Q540 1392 510 1330T446 1129Q417 1003 417 944V919Q429 919 452 920Q495 922 610 940Q634 943 655 943Q747 943 776 874Q782 859 782 844Q782 811 753 784Q721 757 678 749Q480 720 397 720L390 719Q387 693 290 68Q282 21 233
-5Q195 -25 146 -25H141Q87 -25 53 -2Q14 22 14 63Q14 71 15 77Q116 725 206 1279Q243 1422 345 1510Q449 1600 585 1600H599Q767 1593 832 1486Z" />
<glyph unicode="g" glyph-name="g" horiz-adv-x="1039" d="M883 -41T852 -158Q769 -438 619 -509Q500 -574 358 -574Q146 -574 -115 -429Q-165 -401 -165 -363Q-165 -356 -163 -350Q-156 -317 -109 -292Q-53 -263 -5 -263Q35 -263 68 -282Q235 -375 343 -375H345Q484
-375 558 -236Q614 -105 636 -16T665 167Q448 31 315 -3Q264 -16 221 -16Q62 -16 12 151Q-3 200 -3 252Q-3 410 134 583Q292 780 492 861Q621 913 734 913Q809 913 877 890Q993 850 1002 696Q999 625 981 551Q883 -41 852 -158ZM713 545Q725 618 729 656Q728 712
698 712Q683 712 662 704Q492 635 386 491Q282 350 279 252V244Q279 198 288 198H291Q352 205 492 283T660 391T713 545Z" />
<glyph unicode="h" glyph-name="h" horiz-adv-x="1061" d="M872 788T949 547Q973 472 993 339Q1018 178 1025 141Q1028 130 1028 119Q1028 81 997 52Q965 24 913 17Q898 15 883 15Q850 15 821 27Q769 47 760 92Q749 139 724 292Q704 415 683 487Q657 577 648 588Q642
596 636 596Q615 596 575 545Q508 461 463 361Q453 339 419 252Q392 179 369 137Q297 2 181 -21Q157 -25 137 -25Q52 -25 16 43Q-25 122 -25 240Q-25 300 -15 370Q-5 437 19 538Q50 671 53 685Q158 1205 162 1302Q163 1352 212 1379Q249 1401 302 1401Q355 1401
392 1378Q437 1351 437 1303V1301Q434 1213 317 697Q311 668 285 548L276 513Q301 568 323 596Q454 806 648 806H653Q872 788 949 547Z" />
<glyph unicode="i" glyph-name="i" horiz-adv-x="459" d="M440 1449T440 1372Q440 1361 438 1349Q437 1341 433 1329Q431 1316 429 1310Q419 1262 352 1245Q324 1237 297 1237Q280 1237 262 1240Q162 1259 162 1335Q162 1346 164 1359Q165 1366 167 1378Q171 1393
172 1397Q182 1445 249 1463Q277 1470 303 1470Q321 1470 339 1467Q440 1449 440 1372ZM105 813Q111 861 160 887Q196 908 246 908H251Q303 908 339 885Q380 860 380 817V809Q319 272 290 69Q283 22 234 -4Q194 -25 142 -25Q90 -24 54 -2Q14 23 14 64Q14 72 15
78Q44 278 105 813Z" />
<glyph unicode="j" glyph-name="j" horiz-adv-x="563" d="M198 928Q206 975 255 1001Q294 1021 342 1021H347Q401 1020 434 998Q473 974 473 934Q473 927 472 920Q454 811 434 341Q418 -28 336 -237Q241 -480 20 -480H10Q-186 -474 -372 -299Q-400 -273 -400 -244Q-400
-229 -392 -214Q-374 -183 -323 -166Q-279 -152 -242 -152Q-182 -152 -144 -189Q-74 -255 -25 -255Q44 -255 87 -117Q122 -4 143 291Q180 820 198 928ZM522 1527T522 1450Q522 1439 520 1426Q519 1420 516 1407Q514 1396 513 1389Q501 1340 435 1323Q406 1315 379
1315Q362 1315 344 1318Q244 1337 244 1414Q244 1425 246 1438Q248 1444 251 1456Q252 1467 253 1474Q265 1523 331 1541Q359 1548 385 1548Q403 1548 421 1545Q522 1527 522 1450Z" />
<glyph unicode="k" glyph-name="k" horiz-adv-x="952" d="M756 858Q775 863 794 863Q823 863 851 851Q893 834 912 798Q923 779 923 759Q923 739 911 720Q888 683 827 669Q631 625 545 584Q422 527 422 460Q422 435 439 407Q523 265 784 160Q846 135 853 93Q855
87 855 80Q855 48 823 19Q771 -26 714 -26Q684 -26 653 -13Q377 98 281 199L261 86Q251 39 202 14Q164 -5 115 -5H110Q58 -5 22 17Q-15 43 -15 81Q-15 88 -14 96Q122 807 166 1386Q170 1436 219 1462Q256 1484 309 1484Q362 1483 398 1461Q441 1435 441 1390V1383Q416
1058 370 742Q450 790 756 858Z" />
<glyph unicode="l" glyph-name="l" horiz-adv-x="483" d="M201 1439Q210 1484 261 1504Q289 1515 322 1515Q337 1515 352 1513Q405 1506 437 1478Q469 1449 469 1410Q469 1400 466 1389Q295 584 291 67Q291 17 244 -10Q206 -32 153 -32Q101 -32 63 -10Q16 17 16
67Q20 591 201 1439Z" />
<glyph unicode="m" glyph-name="m" horiz-adv-x="1747" d="M1318 815Q1436 815 1508 721Q1561 651 1595 513Q1693 111 1702 99Q1715 78 1715 59Q1715 35 1695 14Q1668 -12 1615 -21Q1588 -25 1565 -25Q1479 -25 1443 33Q1372 146 1328 332L1275 515L1244 456Q1192
370 1167 332Q1070 187 957 120Q889 78 834 78Q735 78 690 204Q671 258 647 497Q643 535 643 570Q640 525 622 493Q511 309 466 264Q305 107 199 107Q70 107 21 199Q-8 254 -8 347Q-8 372 -6 400Q-4 437 24 623Q36 703 36 752Q36 780 32 797Q31 805 31 812Q31 852
68 876Q102 898 155 899Q207 899 247 879Q297 854 306 807Q313 776 313 729Q313 636 288 481L284 434Q304 463 342 534Q384 613 408 649Q497 791 594 828Q643 847 687 847Q784 847 846 758Q914 661 922 501Q924 461 924 429L955 477Q1014 577 1043 619Q1178 815
1318 815Z" />
<glyph unicode="n" glyph-name="n" horiz-adv-x="1091" d="M1022 187T1051 187Q1110 187 1161 141Q1194 114 1194 81Q1194 74 1192 68Q1185 26 1123 3Q1048 -25 987 -25Q894 -25 830 36Q739 121 720 313Q702 481 689 521Q678 553 671 553Q654 553 618 491Q498
288 487 271Q390 116 342 70Q263 -7 176 -7Q140 -7 102 7Q9 43 9 173Q9 192 11 213Q57 681 57 700Q58 749 105 778Q143 799 196 799Q249 799 286 778Q332 750 332 702V700Q330 619 315 493Q344 544 388 603Q473 719 609 761Q657 775 702 775Q800 775 875 706Q962
625 982 440Q995 180 1008 180L1009 181Q1022 187 1051 187Z" />
<glyph unicode="o" glyph-name="o" horiz-adv-x="976" d="M396 997Q472 1021 544 1021Q653 1021 746 965Q909 869 926 659Q928 630 928 601Q928 404 810 238Q674 45 447 -8Q376 -25 316 -25Q185 -25 105 54Q7 148 7 331V349Q11 529 101 704Q194 889 331 970Q347
981 369 989Q381 995 396 997ZM477 205T565 323Q651 437 654 574V591Q654 690 621 759Q591 825 541 825Q523 825 502 817Q418 779 354 663Q299 563 281 449Q272 391 272 337Q272 300 276 267Q288 172 332 172Q339 172 347 174Q477 205 565 323Z" />
<glyph unicode="p" glyph-name="p" horiz-adv-x="1139" d="M62 567Q67 658 99 817Q108 862 159 882Q188 894 221 894Q236 894 251 892Q288 884 319 857Q351 828 351 789Q351 778 348 767L335 718Q500 876 550 910Q691 1011 828 1011Q868 1011 907 1002Q1103 962
1103 751Q1103 717 1098 679Q1072 497 958 301Q853 123 705 38Q601 -21 491 -21Q421 -21 349 3Q313 15 300 25Q232 -238 208 -468Q202 -517 154 -543Q115 -564 63 -564Q10 -564 -26 -541Q-67 -515 -67 -471V-464Q-30 -114 -21 -61Q-17 -39 -13 -19L62 567ZM375
184T445 172Q456 169 467 169Q527 169 585 229Q689 339 733 425Q831 621 831 710Q831 716 830 721Q826 762 801 762Q756 762 659 691Q561 612 462 468T360 275Q375 184 445 172Z" />
<glyph unicode="q" glyph-name="q" horiz-adv-x="992" d="M938 780Q960 695 960 585Q960 396 896 132Q815 -209 815 -403Q815 -455 821 -498V-507Q821 -550 782 -575Q746 -598 694 -598H689Q640 -598 602 -578Q553 -552 546 -503Q541 -467 541 -419Q541 -217 594
23Q595 28 595 33Q595 54 574 54Q548 54 491 22Q383 -22 288 -22Q274 -22 260 -21Q76 -9 26 192Q9 259 9 327Q9 463 74 602Q170 806 350 910Q491 991 638 991Q659 991 681 989Q890 973 938 780ZM446 194T630 373Q655 404 675 482Q687 532 687 597Q687 634 683 677Q670
797 617 797Q599 797 573 785Q458 728 379 618Q299 504 290 378Q288 353 288 328Q288 288 293 248Q302 184 335 184H339Q446 194 630 373Z" />
<glyph unicode="r" glyph-name="r" horiz-adv-x="933" d="M420 875Q542 1005 690 1017Q704 1018 717 1018Q856 1018 954 905Q977 878 977 851Q977 834 968 817Q949 784 897 768Q856 755 822 755Q760 755 722 799Q711 819 696 819Q693 819 690 818Q677 812 634
767Q543 667 484 546Q410 392 377 264Q321 42 309 23Q284 -15 220 -24Q205 -26 190 -26Q152 -26 123 -11Q46 26 30 134Q27 158 27 207Q27 246 29 302Q32 384 47 547Q62 710 75 793Q84 841 124 866Q163 889 205 889Q261 889 288 864Q323 836 330 790L420 875Z" />
<glyph unicode="s" glyph-name="s" horiz-adv-x="861" d="M648 464Q816 358 816 251Q816 222 804 194Q741 45 510 -2Q395 -25 156 -25Q98 -25 62 3Q27 32 27 73Q27 115 62 144Q98 172 156 172Q335 172 396 184Q467 199 511 225Q540 242 540 255Q540 269 503 292Q462
320 419 344Q183 488 138 647Q125 692 125 734Q125 891 304 986Q443 1060 582 1060Q639 1060 694 1048Q755 1035 779 999Q791 981 791 960Q791 941 780 920Q761 886 719 867Q690 855 659 855Q642 855 624 859Q603 863 584 863Q547 863 512 848Q461 826 431 782Q404
741 404 700V689Q408 638 455 596Q485 568 648 464Z" />
<glyph unicode="t" glyph-name="t" horiz-adv-x="963" d="M801 998Q858 998 894 971Q930 942 930 901Q930 859 895 830Q859 802 801 802Q754 801 660 800Q566 799 539 798Q500 667 479 580Q444 435 444 315Q444 286 446 258Q452 171 477 171Q513 171 595 270Q622
303 676 310Q691 312 706 312Q739 312 769 302Q820 287 840 254Q851 237 851 219Q851 191 828 164Q697 6 468 -22Q440 -25 416 -25Q333 -25 273 10Q182 64 162 191Q154 243 154 303Q154 513 244 795Q174 794 120 794H116Q61 794 27 821Q-9 849 -9 891Q-9 932 26
961Q62 989 120 990L308 992Q359 1150 381 1247Q390 1292 442 1312Q471 1324 504 1324Q519 1324 534 1322Q586 1315 618 1287Q649 1258 649 1219Q649 1208 646 1197Q626 1106 594 995Q721 997 801 998Z" />
<glyph unicode="u" glyph-name="u" horiz-adv-x="998" d="M695 865Q695 915 742 942Q780 964 832 964Q885 964 922 942Q969 916 969 867V865Q968 586 906 399Q808 77 557 -5Q496 -25 433 -25Q353 -25 271 8Q129 63 43 196Q3 279 3 427Q3 467 6 512Q19 716 37 881Q37
929 85 958Q120 978 164 978H168Q221 978 258 957Q305 928 305 877Q258 546 258 427Q258 396 261 381Q284 239 386 194Q410 183 433 183Q453 183 473 191Q521 211 559 279Q693 499 695 865Z" />
<glyph unicode="v" glyph-name="v" horiz-adv-x="1035" d="M725 878Q742 919 795 936Q824 945 855 945Q872 945 889 943Q942 934 970 907Q994 883 994 853Q994 837 987 820Q830 444 795 381Q656 127 465 34Q436 19 401 19Q384 19 368 23Q320 33 284 63Q175 158
91 441Q19 686 12 838V843Q12 889 56 916Q93 939 146 939Q198 939 236 917Q285 890 286 840Q294 677 367 460Q417 310 430 287Q461 319 520 430Q597 576 725 878Z" />
<glyph unicode="w" glyph-name="w" horiz-adv-x="1674" d="M1366 876Q1375 921 1427 941Q1456 953 1489 953Q1504 953 1519 951Q1571 944 1603 915Q1633 887 1633 850Q1633 839 1630 828Q1569 559 1514 413Q1419 162 1282 50Q1191 -24 1108 -24Q1006 -24 925 85Q867
162 767 404L729 343Q669 222 634 164Q590 92 518 47Q466 13 399 13Q383 13 364 15Q274 26 221 84Q48 274 -2 833V840Q-2 884 40 910Q76 933 129 933Q181 933 220 912Q269 884 273 836Q313 382 402 274Q436 338 468 405Q535 527 617 615Q663 665 735 686Q770 697
804 697Q842 697 875 683Q964 650 1011 538Q1026 502 1043 444L1093 300L1112 242Q1117 233 1124 233Q1142 233 1173 301Q1297 579 1366 876Z" />
<glyph unicode="x" glyph-name="x" horiz-adv-x="906" d="M615 401T728 256T862 90Q886 64 886 37Q886 22 878 7Q860 -24 811 -39Q772 -51 738 -51Q680 -51 643 -12Q444 259 433 301Q415 267 224 -12Q187 -51 129 -51Q95 -51 56 -39Q6 -24 -12 7Q-20 22 -20 36Q-20
64 5 90Q18 104 144 257T270 483Q270 490 269 496Q259 560 169 663Q155 678 92 748Q46 797 26 825Q7 851 7 877Q7 896 18 913Q37 945 86 959Q114 968 144 968Q158 968 173 966Q224 957 248 924Q265 900 345 813Q427 724 441 686Q454 719 528 804Q604 891 629 924Q653
957 704 966Q719 968 733 968Q763 968 791 959Q839 945 859 913Q870 896 870 877Q870 851 851 825Q835 803 785 750Q725 685 700 657Q607 547 607 492V485Q615 401 728 256Z" />
<glyph unicode="y" glyph-name="y" horiz-adv-x="1074" d="M649 -26L581 -41Q521 -61 458 -61Q378 -61 296 -28Q154 27 68 160Q28 243 28 391Q28 431 31 476Q44 680 62 845Q62 893 110 922Q145 942 189 942H193Q246 942 283 921Q330 892 330 841Q283 510 283 391Q283
360 286 345Q309 203 411 158Q435 147 458 147Q478 147 498 155Q546 175 584 243Q718 463 720 829Q720 879 767 906Q805 928 857 928Q902 928 929 905Q974 880 974 831V829Q973 649 940 355T856 -127Q817 -307 696 -447Q578 -574 417 -585Q400 -586 383 -586Q345
-586 304 -580Q116 -547 -36 -415Q-65 -392 -68 -362Q-68 -347 -62 -332Q-45 -298 5 -279Q48 -262 84 -260Q91 -259 98 -259Q148 -259 184 -290Q267 -364 346 -377L383 -380Q459 -375 512 -317T594 -185Q627 -102 649 -26Z" />
<glyph unicode="z" glyph-name="z" horiz-adv-x="930" d="M755 189T765 189Q811 189 841 167Q876 142 876 101V99Q876 58 841 27Q806 -3 751 -8Q590 -23 464 -23Q366 -23 289 -14Q97 10 41 88Q10 131 10 180Q10 235 50 297Q89 354 195 445Q506 671 506 709Q506
717 494 717H492Q389 717 196 691Q185 690 175 690Q137 690 102 706Q60 727 41 763Q31 782 31 801Q31 821 42 839Q67 873 130 882Q438 922 478 923H506Q752 923 806 799Q816 775 816 750Q816 679 738 598Q720 578 582 465Q561 448 497 400Q437 355 404 328Q299
240 294 213Q293 210 293 206Q293 185 325 180Q381 172 462 172Q579 172 746 188Q755 189 765 189Z" />
<glyph unicode="{" glyph-name="braceleft" horiz-adv-x="1127" d="M952 1543T991 1517Q1032 1489 1032 1448Q1032 1406 991 1378Q953 1354 893 1354H875Q685 1354 617 1276Q567 1217 567 1074Q567 846 563 811Q537 657 440 598Q514 534 540 362Q540 357 554 75Q561
-81 610 -144Q670 -219 814 -219Q831 -219 850 -218H863Q920 -218 956 -239Q996 -264 996 -306Q996 -348 956 -377Q917 -404 853 -410Q809 -412 769 -412Q336 -412 256 -130V-110Q256 -48 265 246V272Q265 483 132 527Q58 553 55 612V617Q55 677 134 696Q232 721
263 788Q282 826 282 888Q282 914 279 940Q259 1138 259 1228Q259 1284 267 1304Q332 1457 528 1510Q652 1545 859 1545H887Q952 1543 991 1517Z" />
<glyph unicode="|" glyph-name="bar" horiz-adv-x="482" d="M102 1447Q102 1497 147 1525Q181 1547 231 1547Q280 1547 315 1525Q358 1496 358 1447L341 -284Q341 -333 298 -362Q262 -384 214 -384Q165 -384 129 -362Q85 -333 85 -284L102 1447Z" />
<glyph unicode="}" glyph-name="braceright" horiz-adv-x="1127" d="M241 1545H269Q476 1545 600 1510Q796 1457 858 1303Q863 1286 863 1244V1228Q861 1137 837 940Q833 913 833 888V876Q833 821 849 787Q879 721 976 696Q1054 676 1054 618V612Q1050 553 975
527Q841 483 836 272V246Q837 50 837 -43V-131Q750 -412 318 -412Q278 -412 234 -410Q170 -404 132 -377Q93 -349 93 -308V-306Q93 -264 134 -238Q170 -218 227 -218H240Q259 -219 276 -219Q420 -219 483 -144Q533 -81 543 76Q563 357 563 362Q593 534 668 599Q573
657 550 812Q549 826 549 867Q549 933 552 1074V1090Q552 1220 506 1276Q439 1354 250 1354H232Q171 1354 135 1378Q95 1404 95 1446V1448Q95 1490 137 1517Q176 1543 241 1545Z" />
<glyph unicode="~" glyph-name="asciitilde" horiz-adv-x="1265" d="M960 1516Q992 1546 1039 1546Q1069 1546 1108 1532Q1150 1516 1165 1488Q1170 1475 1170 1463Q1170 1437 1147 1413Q1118 1384 1077 1333Q1021 1263 1009 1249Q925 1150 826 1129Q810 1127
792 1127Q727 1127 647 1172Q615 1191 564 1226Q507 1264 486 1277Q421 1315 382 1315Q373 1315 365 1313Q311 1298 277 1181Q266 1140 223 1124Q198 1113 172 1113Q159 1113 144 1115Q101 1124 77 1150Q55 1175 55 1205Q55 1218 59 1230Q107 1393 213 1465Q289
1517 389 1517Q427 1517 468 1509Q499 1502 663 1391Q748 1331 784 1331Q790 1331 796 1334Q827 1347 877 1414Q928 1484 960 1516Z" />
</font>
</defs>
</svg>
